<?xml version="1.0" standalone="no"?><svg xmlns="http://www.w3.org/2000/svg" viewBox="0 0 1440 320"><path fill="#141FD5" fill-opacity="1" d="M0,32L30,48C60,64,120,96,180,128C240,160,300,192,360,170.7C420,149,480,75,540,42.7C600,11,660,21,720,48C780,75,840,117,900,149.3C960,181,1020,203,1080,213.3C1140,224,1200,224,1260,208C1320,192,1380,160,1410,144L1440,128L1440,320L1410,320C1380,320,1320,320,1260,320C1200,320,1140,320,1080,320C1020,320,960,320,900,320C840,320,780,320,720,320C660,320,600,320,540,320C480,320,420,320,360,320C300,320,240,320,180,320C120,320,60,320,30,320L0,320Z"></path></svg>